<?xml version="1.0" encoding="UTF-8"?>
<svg width="202px" height="202px" viewBox="0 0 202 202" version="1.1" xmlns="http://www.w3.org/2000/svg" xmlns:xlink="http://www.w3.org/1999/xlink">
    <title>add_</title>
    <g id="页面-1" stroke="none" stroke-width="1" fill="none" fill-rule="evenodd">
        <g id="add_" transform="translate(0.5494, 5.3594)" fill="#000000" fill-rule="nonzero">
            <g transform="translate(84.0729, 0)">
                <path d="M16.3755439,5.17287445 C22.5615701,5.17653205 27.5750782,10.1900401 27.5782134,16.375544 L27.5797809,174.909514 C27.3665958,180.94349 22.4142217,185.72448 16.3760665,185.72448 C10.3389563,185.72448 5.38710458,180.942967 5.17339694,174.909514 L5.17182938,16.3765889 C5.17548698,10.1905627 10.188995,5.17705464 16.3750214,5.17287445 L16.3755439,5.17287445 Z" id="路径"></path>
                <path d="M16.378679,0 C25.4186689,0.00574764648 32.7453401,7.33241888 32.7510878,16.375544 L32.7510878,174.910037 L32.7510878,175.000954 L32.7479527,175.091871 C32.4365352,183.909794 25.1986912,190.896832 16.3755439,190.896832 C7.55239675,190.896832 0.314552629,183.909793 0.00365760156,175.092394 L0,175.000954 L0,174.910037 L0,16.3724089 C0.00574775,7.33241898 7.33241898,0.00574774414 16.3724089,0 L16.378679,0 L16.378679,0 Z M16.171764,10.348884 C12.9358436,10.4601791 10.3473164,13.1166332 10.3447038,16.375544 L10.3452264,174.788292 L10.3525415,174.93355 C10.5670476,178.018746 13.0783093,180.44293 16.1691514,180.54847 L16.3750214,180.551605 C19.6268771,180.551605 22.2946946,177.976481 22.4089965,174.726635 L22.4058614,174.788292 L22.4058614,16.3792016 C22.4041478,13.1281773 19.8283692,10.4623122 16.5793238,10.348884 L16.3718863,10.3452264 L16.171764,10.348884 L16.171764,10.348884 Z" id="形状" stroke="#000000" stroke-width="10"></path>
            </g>
            <g transform="translate(100.4484, 95.4484) rotate(-90) translate(-100.4484, -95.4484)translate(79.0729, -5)">
                <path d="M21.3755439,10.1728744 C27.5615701,10.1765321 32.5750782,15.1900401 32.5782134,21.375544 L32.5797809,179.909514 C32.3665958,185.94349 27.4142217,190.72448 21.3760665,190.72448 C15.3389563,190.72448 10.3871046,185.942967 10.1733969,179.909514 L10.1718294,21.3765889 C10.175487,15.1905627 15.188995,10.1770546 21.3750214,10.1728744 L21.3755439,10.1728744 Z" id="路径"></path>
                <path d="M21.378679,5 C30.4186689,5.00574765 37.7453401,12.3324189 37.7510878,21.375544 L37.7510878,179.910037 L37.7510878,180.000954 L37.7479527,180.091871 C37.4365352,188.909794 30.1986912,195.896832 21.3755439,195.896832 C12.5523968,195.896832 5.31455263,188.909793 5.0036576,180.092394 L5,180.000954 L5,179.910037 L5,21.3724089 C5.00574775,12.332419 12.332419,5.00574774 21.3724089,5 L21.378679,5 L21.378679,5 Z M21.171764,15.348884 C17.9358436,15.4601791 15.3473164,18.1166332 15.3447038,21.375544 L15.3452264,179.788292 L15.3525415,179.93355 C15.5670476,183.018746 18.0783093,185.44293 21.1691514,185.54847 L21.3750214,185.551605 C24.6268771,185.551605 27.2946946,182.976481 27.4089965,179.726635 L27.4058614,179.788292 L27.4058614,21.3792016 C27.4041478,18.1281773 24.8283692,15.4623122 21.5793238,15.348884 L21.3718863,15.3452264 L21.171764,15.348884 L21.171764,15.348884 Z" id="形状"></path>
                <path d="M21.378679,4.25935551e-16 C33.1814215,0.00750320037 42.7435859,9.57093262 42.7510878,21.375544 L42.7510878,180.000954 L42.7481178,180.173268 L42.7448375,180.268344 C42.3383821,191.777306 32.891457,200.896832 21.3755439,200.896832 C9.85958707,200.896832 0.412548335,191.777204 0.00765283421,180.292235 L0.00399523264,180.200795 L0,180.000954 L0,179.910037 L0,21.3692298 C0.007502933,9.57029939 9.5702994,0.00750292535 21.3724089,4.25935551e-16 L21.378679,4.25935551e-16 Z M21.3755,9.99999899 L21.0820505,10.0038968 C14.9367008,10.163362 10.0039302,15.1926303 10,21.3724089 L10,179.902 L10.0005525,179.916207 C10.2130744,185.943614 15.0842838,190.739907 21.0797919,190.893058 L21.3755439,190.896832 C27.50589,190.896832 32.5346871,186.042316 32.7510888,179.919558 L32.7510888,179.89 L32.7510888,21.3787219 C32.7471573,15.1930601 27.8147133,10.163374 21.6690526,10.0038971 L21.3755,9.99999899 Z M21.4600341,10.3460035 L21.7537737,10.3519282 C27.6936845,10.5592979 32.4027279,15.4330374 32.4059068,21.3792016 L32.4059068,179.788292 L29.756,179.788 L32.4059068,179.902384 L32.401,179.98 L32.3994101,180.042204 L32.3918819,180.193566 C32.0426522,185.899996 27.3804431,190.39942 21.5940607,190.547273 L21.2988846,190.551026 L20.9985202,190.545558 C15.3478367,190.352609 10.7567434,185.920711 10.3588696,180.185027 L10.3515545,180.039769 L10.3452268,179.914118 L10.3452264,179.788308 L10.3447054,21.3715357 C10.3494731,15.4243042 15.0679196,10.5558611 20.9998973,10.3518387 L21.0803951,10.3497189 L21.2805174,10.3460035 L21.4600341,10.3460035 Z M21.375,20.346 L21.324,20.346 L21.2266662,20.3566121 C20.7665188,20.4252305 20.4047313,20.7984575 20.3514699,21.2587629 L20.3447038,21.3755275 L20.345,179.626 L20.3558313,179.706918 C20.4364286,180.139185 20.7780827,180.474333 21.1448234,180.538422 L21.2452883,180.54905 L21.3750214,180.551605 C21.9340916,180.551605 22.3924517,180.109137 22.4120863,179.550886 L22.405,179.625 L22.4058621,21.3818371 C22.4055887,20.8632115 22.0240138,20.4312667 21.5916927,20.3584194 L21.491176,20.348107 L21.375,20.346 Z" id="形状"></path>
            </g>
        </g>
    </g>
</svg>