<?xml version="1.0" standalone="no"?><!DOCTYPE svg PUBLIC "-//W3C//DTD SVG 1.1//EN" "http://www.w3.org/Graphics/SVG/1.1/DTD/svg11.dtd"><svg t="1750044856449" class="icon" viewBox="0 0 1024 1024" version="1.1" xmlns="http://www.w3.org/2000/svg" p-id="832" xmlns:xlink="http://www.w3.org/1999/xlink" width="200" height="200"><path d="M917.83441773 454.65086647c30.89395278 1.091508 55.37262112 26.44766334 55.37529675 57.36034306-0.00267514 30.9126792-24.48401909 56.26615992-55.37529675 57.36034304L106.14583887 569.37422719c-30.89395278-1.091508-55.37262112-26.44766334-55.37262112-57.36301766 0-30.91000407 24.47866883-56.26615992 55.37262112-57.35766742L917.8317426 454.64819134z" p-id="833"></path><path d="M918.77343576 428.1844762c45.14508581 1.59178202 80.91872078 38.64954394 80.91604515 83.8267328 0 45.17451324-35.77363497 82.23227514-80.91872078 83.82405821l-0.46549582 0.01605179L105.67231664 595.85666925l-0.46282068-0.01872692c-45.14776145-1.59445765-80.92139591-38.65221907-80.9213954-83.8267328 0-45.17451324 35.77363497-82.23227514 80.91604513-83.82673282l0.47084659-0.01605229L918.30258919 428.16842491l0.46817145 0.01337617z m27.9484864 83.82405819a30.91033832 30.91033832 0 0 0-29.8211722-30.89127765l0.35581044 0.01872692L106.72102107 481.13063288l-0.70627013 0.04280462a30.91033832 30.91033832 0 0 0-28.74571549 29.77836709l-0.01605128 1.05405417a30.91033832 30.91033832 0 0 0 29.82117119 30.89127767l-0.31568045-0.01605181L917.21643143 542.88376026l0.74104833-0.0347787a30.91033832 30.91033832 0 0 0 28.74839113-29.78104275l0.01605127-1.05405416z" p-id="834"></path><path d="M511.98879047 48.80523921c31.67245444 0.01872692 57.34161562 25.68788811 57.35766792 57.35766793L569.35448429 917.85683626c-1.091508 30.89395278-26.44766334 55.37262112-57.36301817 55.37262161-30.91000407 0-56.26348479-24.48134396-57.35766794-55.37262161L454.62577229 106.1682574c0.01872692-31.67245444 25.68788811-57.34161562 57.36034306-57.36034306z" p-id="835"></path><path d="M512.00484227 22.32012203c46.28474816 0.02942795 83.79730487 37.54198464 83.82673331 83.84278511l-4.9e-7 811.69660425 4.9e-7 0.46549632-0.01605178 0.46549582c-1.59445765 45.14776145-38.65221907 80.92139591-83.82673333 80.92139591-45.17451324 0-82.23227514-35.77363497-83.82405768-80.91872027l-0.01872639-0.46817146-5.3e-7-0.46549632L428.1460064 106.14685535c0.02942795-46.28474816 37.54198464-83.79730487 83.8267328-83.82673282l0.03210306-5e-7z m-1.05940494 52.98628616c-16.56791208 0.56983092-29.82117172 14.1708756-29.83454786 30.85649895l0.00267564 811.0732677 0.03745333 0.74372397a30.91033832 30.91033832 0 0 0 29.78104275 28.74839009l1.05405416 0.01605233a30.91033832 30.91033832 0 0 0 30.89395278-29.82384735l-0.01605179 0.31568147L542.86401634 106.18163406a30.91033832 30.91033832 0 0 0-29.83187272-30.87522587l-1.06208007-0.01872692-1.02462622 0.01872692z" p-id="836"></path></svg>