<?xml version="1.0" standalone="no"?><!DOCTYPE svg PUBLIC "-//W3C//DTD SVG 1.1//EN" "http://www.w3.org/Graphics/SVG/1.1/DTD/svg11.dtd"><svg t="1750044747962" class="icon" viewBox="0 0 1024 1024" version="1.1" xmlns="http://www.w3.org/2000/svg" p-id="832" xmlns:xlink="http://www.w3.org/1999/xlink" width="200" height="200"><path d="M830.99534094 88.0125275c29.27874844-27.28046625 74.89638937-26.477235 103.19558812 1.81706531 28.29430031 28.29919781 29.09263406 73.91683969 1.81706532 103.19558813L193.00955656 936.02851531c-29.27874844 27.28046625-74.89638937 26.477235-103.19558719-1.82196281-28.29430031-28.29430031-29.09753156-73.91194219-1.81706531-103.19068969L830.99044344 88.0125275z" p-id="833"></path><path d="M807.62817688 62.92625281c42.78184406-39.86768344 109.45001438-38.69222344 150.80171531 2.66437594 41.35170094 41.35170094 42.52716094 108.01987125 2.65947843 150.80171625l-0.41141062 0.4407975L216.81751812 960.70337937l-0.44079749 0.40651313c-42.7867425 39.86768344-109.45491188 38.69222344-150.80661282-2.65947844-41.35170094-41.35170094-42.52716094-108.01987125-2.66437593-150.80171531l0.41630812-0.44569594L807.18248188 63.34256188l0.44079749-0.41630907z m102.31399312 51.14720156a40.01461594 40.01461594 0 0 0-55.5747675-0.97954968l0.34284281-0.30855844L112.75992687 854.72586875l-0.60732093 0.68568562a40.01461594 40.01461594 0 0 0 0.94526531 53.57158688l0.95016375 0.97954969a40.01461594 40.01461594 0 0 0 55.57476656 0.97955062l-0.30366 0.27427313L911.19599375 169.34456094l0.64650281-0.71017407a40.01461594 40.01461594 0 0 0-0.94526531-53.57648531l-0.95016375-0.97954969z" p-id="834"></path><path d="M87.99200562 88.0125275c29.00937187-28.9750875 76.00328063-28.9750875 105.00775594 0L936.01289187 831.01096438c27.28046625 29.27874844 26.477235 74.89638937-1.82196281 103.19558812-28.29430031 28.29430031-73.91194219 29.09263406-103.19069062 1.81706531L87.99200562 193.03007844c-28.9750875-29.00937187-28.9750875-76.00328063 1e-8-105.01265344z" p-id="835"></path><path d="M63.7628375 63.7539725c42.39492187-42.34104656 111.07116937-42.34104656 153.48078563 0.01469344l743.00823187 743.00823281 0.426105 0.42610406 0.41141062 0.4407975c39.86768344 42.7867425 38.69222344 109.45491188-2.65947843 150.80661375-41.35170094 41.35170094-108.01987125 42.52716094-150.80171532 2.65947844l-0.445695-0.41141156-0.426105-0.42610406L63.73345156 217.24945063c-42.34104656-42.39492187-42.34104656-111.07116937 0-153.46609125l0.02938594-0.02938688z m47.53266188 49.47217125c-14.64427219 15.68749219-14.32591781 40.26929906 0.93547031 55.55517562l742.44009375 742.43519532 0.71507156 0.64650375a40.01461594 40.01461594 0 0 0 53.57648438-0.94526625l0.97955062-0.95016282a40.01461594 40.01461594 0 0 0 0.97954969-55.579665l0.27427406 0.30366094L168.77549094 112.2710825a40.01461594 40.01461594 0 0 0-55.56986906-0.95506125l-0.98934563 0.95506125-0.92077687 0.95506125z" p-id="836"></path></svg>